<?xml version="1.0" standalone="no"?>
<!DOCTYPE svg PUBLIC "-//W3C//DTD SVG 20010904//EN"
 "http://www.w3.org/TR/2001/REC-SVG-20010904/DTD/svg10.dtd">
<svg version="1.0" xmlns="http://www.w3.org/2000/svg"
 width="500.000000pt" height="500.000000pt" viewBox="0 0 500.000000 500.000000"
 preserveAspectRatio="xMidYMid meet">
<metadata>
Created by potrace 1.14, written by Peter Selinger 2001-2017
</metadata>
<g transform="translate(0.000000,500.000000) scale(0.100000,-0.100000)"
fill="#000000" stroke="none">
<path d="M2240 4878 c-30 -5 -64 -10 -75 -12 -11 -2 -45 -7 -75 -11 -30 -5
-57 -9 -60 -10 -99 -24 -167 -40 -175 -40 -5 0 -12 -3 -15 -7 -3 -4 -17 -9
-30 -11 -22 -4 -65 -19 -205 -69 -16 -6 -41 -18 -55 -27 -13 -9 -25 -15 -27
-13 -7 6 -279 -140 -318 -170 -5 -4 -46 -33 -90 -64 -146 -103 -300 -245 -433
-399 -98 -113 -292 -407 -292 -442 0 -7 -4 -13 -10 -13 -5 0 -10 -4 -10 -10 0
-5 -16 -43 -35 -84 -19 -41 -35 -79 -35 -83 0 -4 -6 -20 -14 -34 -13 -25 -45
-121 -80 -234 -13 -45 -35 -143 -51 -230 -3 -16 -8 -57 -11 -90 -3 -33 -9 -81
-13 -106 -6 -37 -6 -355 -1 -419 9 -101 26 -213 45 -293 8 -35 16 -72 18 -83
2 -10 6 -26 9 -34 3 -8 13 -40 21 -70 23 -84 36 -118 88 -240 42 -99 130 -274
141 -278 4 -2 8 -8 8 -13 0 -26 184 -280 269 -373 95 -102 194 -196 271 -255
25 -19 47 -39 48 -43 2 -4 8 -8 13 -8 8 0 35 -20 64 -48 8 -6 17 -12 22 -12 4
0 19 -10 33 -23 14 -13 27 -23 30 -23 5 0 20 -9 90 -53 14 -8 43 -24 65 -35
22 -11 47 -26 57 -33 9 -8 22 -16 30 -17 15 -3 47 -16 108 -44 105 -48 288
-112 321 -112 9 0 19 -3 23 -7 3 -4 13 -8 22 -9 8 -1 52 -10 96 -19 45 -9 98
-19 118 -21 19 -3 49 -7 65 -10 152 -22 439 -21 605 2 19 2 42 5 50 5 8 1 43
7 78 15 34 7 77 16 95 19 17 3 55 13 84 21 29 8 64 17 79 20 15 3 39 11 55 19
15 8 36 15 47 15 10 0 22 4 28 8 5 5 43 21 84 37 41 16 82 34 90 41 16 13 51
25 61 21 4 -1 15 5 25 13 11 9 39 26 64 39 47 25 271 169 280 180 3 3 23 19
45 36 21 16 47 36 56 45 10 8 45 40 80 70 34 30 80 75 103 99 23 24 56 59 74
78 18 18 30 33 28 33 -3 0 5 10 17 23 39 42 75 87 69 87 -3 0 3 7 14 15 10 8
15 15 9 15 -6 0 -6 3 1 8 12 8 104 137 104 146 0 3 15 29 33 58 47 74 171 335
182 383 6 23 48 151 53 160 3 5 7 18 8 30 1 11 11 58 22 105 11 47 24 110 28
140 4 30 9 66 11 80 11 73 15 141 15 300 0 165 -3 217 -16 300 -3 19 -8 55
-11 80 -2 25 -6 54 -9 65 -2 11 -12 53 -20 94 -9 40 -19 77 -21 82 -3 5 -14
39 -24 76 -34 121 -69 208 -151 373 -59 121 -72 142 -90 157 -8 7 -12 13 -8
13 8 0 -57 106 -79 128 -7 7 -20 26 -30 42 -9 17 -21 30 -25 30 -4 0 -8 6 -8
14 0 8 -4 16 -8 18 -4 2 -31 30 -58 64 -66 79 -192 206 -274 275 -36 29 -66
57 -68 62 -2 4 -10 7 -18 7 -8 0 -14 4 -14 9 0 5 -15 18 -32 29 -18 11 -58 38
-89 60 -197 140 -514 278 -779 340 -74 17 -111 24 -215 38 -11 2 -38 6 -60 10
-59 10 -471 12 -535 2z m400 -123 c103 -6 175 -12 175 -15 0 -1 16 -3 35 -6
19 -2 58 -9 85 -16 28 -7 54 -11 59 -10 4 2 29 -4 55 -13 25 -8 51 -15 56 -16
6 -1 20 -5 33 -10 12 -5 33 -11 45 -13 12 -2 36 -10 52 -17 17 -7 32 -13 35
-13 38 -8 281 -121 360 -168 19 -12 44 -26 55 -32 38 -21 150 -100 153 -108 2
-4 10 -8 17 -8 7 0 15 -3 17 -7 2 -5 26 -26 53 -48 28 -22 87 -76 133 -120 46
-44 87 -81 93 -83 5 -2 9 -8 9 -13 0 -5 18 -28 39 -52 22 -23 67 -78 100 -122
33 -44 65 -85 71 -92 5 -7 10 -15 10 -19 0 -4 6 -15 14 -23 8 -9 23 -32 34
-51 11 -19 38 -67 61 -107 22 -40 41 -75 41 -78 0 -3 14 -36 31 -73 18 -37 35
-78 40 -92 4 -14 16 -49 27 -77 11 -29 18 -53 16 -53 -3 0 2 -12 9 -27 13 -25
50 -165 62 -233 3 -14 7 -36 10 -50 41 -206 38 -589 -5 -780 -5 -25 -12 -56
-14 -70 -17 -100 -102 -358 -151 -459 -19 -39 -35 -74 -35 -77 0 -3 -9 -19
-21 -35 -11 -16 -17 -29 -14 -29 4 0 -3 -12 -14 -26 -12 -15 -21 -31 -21 -35
0 -9 -107 -178 -120 -189 -3 -3 -19 -23 -35 -45 -43 -58 -55 -72 -109 -129
-26 -28 -54 -59 -61 -69 -12 -18 -129 -125 -206 -189 -65 -54 -195 -148 -204
-148 -3 0 -28 -15 -57 -33 -97 -61 -328 -173 -346 -168 -1 1 -16 -6 -32 -14
-17 -9 -30 -13 -30 -9 0 4 -6 2 -13 -4 -10 -9 -129 -45 -187 -57 -8 -2 -42
-10 -75 -18 -33 -9 -85 -19 -115 -22 -30 -4 -57 -8 -61 -10 -35 -22 -501 -21
-604 1 -40 9 -77 15 -95 16 -8 0 -33 5 -55 10 -22 6 -47 12 -56 13 -9 2 -33 8
-53 13 -20 6 -36 7 -36 4 0 -4 -4 -2 -8 3 -4 6 -27 16 -52 23 -25 7 -52 14
-60 17 -15 4 -122 47 -170 67 -14 6 -27 12 -30 13 -43 12 -213 106 -314 174
-38 25 -76 51 -85 56 -9 6 -18 12 -21 15 -3 3 -25 21 -50 40 -105 80 -290 266
-370 370 -19 25 -38 46 -42 48 -5 2 -8 10 -8 17 0 7 -3 15 -7 17 -38 17 -245
390 -279 503 -2 6 -19 56 -38 113 -20 56 -38 113 -40 125 -3 12 -15 67 -27
122 -37 173 -47 280 -44 475 3 197 7 252 25 340 6 30 13 69 16 85 4 25 29 127
48 195 12 40 60 179 73 210 68 155 203 400 224 408 5 2 9 8 9 14 0 8 37 63 65
94 6 7 24 29 40 50 222 281 575 541 915 674 85 33 220 79 220 75 0 -2 19 3 42
11 23 8 54 17 70 19 15 3 59 12 96 19 92 19 168 27 285 31 54 2 101 6 104 8 2
3 16 3 31 1 15 -2 70 -7 122 -9z"/>
<path d="M2685 4062 c-33 -8 -63 -19 -66 -24 -3 -6 -9 -9 -13 -9 -18 3 -26 -2
-68 -42 -42 -40 -85 -103 -80 -119 1 -5 -2 -8 -7 -8 -5 0 -15 -22 -22 -50 -7
-27 -15 -50 -18 -50 -8 0 -15 -74 -14 -151 1 -54 11 -105 38 -189 19 -59 61
-112 141 -178 43 -36 72 -45 159 -48 64 -2 87 2 120 18 67 35 114 69 120 89 4
11 10 17 14 15 4 -3 7 -483 7 -1066 -1 -584 1 -1065 4 -1069 3 -4 267 -8 588
-8 l582 0 0 1266 -1 1266 -23 71 c-25 78 -65 155 -101 196 -26 30 -103 77
-138 84 -12 2 -33 7 -47 10 -38 8 -41 8 -100 -6 -53 -12 -160 -67 -160 -82 0
-3 -6 -13 -13 -20 -28 -29 -83 -140 -92 -188 -1 -3 -4 -18 -8 -35 -35 -151 15
-354 107 -438 23 -20 50 -46 61 -56 34 -32 88 -49 161 -49 56 0 80 6 130 30
33 16 75 43 92 59 19 18 32 25 33 17 1 -17 1 -1260 0 -1274 -1 -7 -153 -10
-491 -10 l-490 0 -1 825 c-1 454 -3 842 -5 862 -7 82 -64 210 -122 274 -30 32
-112 83 -112 69 0 -4 -6 -2 -12 4 -7 5 -27 12 -45 15 -17 3 -35 7 -40 9 -4 3
-35 -2 -68 -10z"/>
</g>
</svg>
